# xmcd
#
# Track frame offsets:
#	150
#	13866
#	32536
#	51062
#	69493
#	92250
#	109051
#	127022
#	152598
#	176374
#	202325
#	219219
#	245920
#	276896
#	289405
#	321762
#
# Disc length: 4500 seconds
#
# Revision: 0
# Processed by: cddbd v1.5.2PL0 Copyright (c) Steve Scherf et al.
# Submitted via: EZCDAudioConverter 7.0.6.1
#
DISCID=e8119210
DTITLE=Neil Young - Back On The Farm
DYEAR=2017
DGENRE=
TTITLE0=Get Back to the Country (with Waylon Jennings, Live at Farm Aid, 1985)
TTITLE1=Hey Hey, My My (Live at Farm Aid, 1985)
TTITLE2=Are You Ready for the Country (Live at Farm Aid, 1986)
TTITLE3=Homegrown (Live at Farm Aid, 1986)
TTITLE4=This Old House (with Crosby, Stills and Nash, Live at Farm Aid, 1990)
TTITLE5=Are There Any More Real Cowboys (with Willie Nelson, Live at Farm Aid,
TTITLE5=1993)
TTITLE6=From Hank to Hendrix (with Willie Nelson, Live at Farm Aid, 1993)
TTITLE7=Last of His Kind (with Willie Nelson, Live at Farm Aid, 1993)
TTITLE8=Helpless (Live at Farm Aid, 1993)
TTITLE9=Mother Earth (Live at Farm Aid, 1993)
TTITLE10=Piece of Crap (Live at Farm Aid, 1994)
TTITLE11=Comes A Time (Live at Farm Aid, 1995)
TTITLE12=Four Strong Winds (Live at Farm Aid, 1995)
TTITLE13=Needle and the Damage Done (Live at Farm Aid, 1995)
TTITLE14=Sugar Mountain (Live at Farm Aid, 1995)
TTITLE15=Heart of Gold (with Willie Nelson, Live at Farm Aid, 1995)
EXTD=
EXTT0=
EXTT1=
EXTT2=
EXTT3=
EXTT4=
EXTT5=
EXTT6=
EXTT7=
EXTT8=
EXTT9=
EXTT10=
EXTT11=
EXTT12=
EXTT13=
EXTT14=
EXTT15=
PLAYORDER=
